<?xml version="1.0" encoding="iso-8859-1"?>
<!-- Uploaded to: SVG Repo, www.svgrepo.com, Generator: SVG Repo Mixer Tools -->
<svg height="800px" width="800px" version="1.1" id="Layer_1" xmlns="http://www.w3.org/2000/svg" xmlns:xlink="http://www.w3.org/1999/xlink" 
	 viewBox="0 0 512 512" xml:space="preserve">
<polygon style="fill:#C1C1C1;" points="196.415,512 220.519,512 220.519,381.692 185.957,360.777 "/>
<polygon style="fill:#DFDFDF;" points="172.31,381.692 172.31,512 196.415,512 196.415,360.777 "/>
<polygon style="fill:#9B9B9B;" points="175.5,284.077 196.415,381.692 220.519,381.692 256.271,304.992 "/>
<polygon style="fill:#C1C1C1;" points="196.415,284.077 136.56,304.992 172.31,381.692 196.415,381.692 "/>
<polygon style="fill:#D9000C;" points="244.083,304.992 432.956,304.992 432.956,256.784 223.168,235.869 "/>
<g>
	<polygon style="fill:#E43138;" points="55.21,256.784 55.21,304.992 244.083,304.992 244.083,235.869 	"/>
	<path style="fill:#E43138;" d="M461.846,215.976V91.145h-39.71C383.005,35.993,318.642,0,245.871,0
		c-0.598,0-1.191,0.018-1.788,0.022l-20.915,156.713l20.915,100.049h188.873h64.642L461.846,215.976z"/>
</g>
<g>
	<path style="fill:#F25F67;" d="M244.083,0.022C125.627,0.984,29.895,97.294,29.895,215.976l-15.492,40.807H55.21h188.873V0.022z"/>
	<path style="fill:#F25F67;" d="M245.871,38.224c-0.597,0-1.191,0.015-1.788,0.021l-10.457,15.742l10.457,15.604
		c0.596-0.007,1.191-0.021,1.788-0.021c47.375,0,92.057,23.115,119.524,61.832l25.567-18.137
		C357.625,66.277,303.386,38.224,245.871,38.224z"/>
</g>
<path style="fill:#E43138;" d="M125.081,85.674c-32.8,30.426-52.827,71.607-56.389,115.957l31.247,2.51
	c2.932-36.502,19.432-70.413,46.46-95.485c26.733-24.798,61.361-38.624,97.684-39.065V38.244
	C199.827,38.686,157.629,55.482,125.081,85.674z"/>
</svg>